# File created by Blade
# Date/Time:  Thu Jan 22 15:33:01 2015
# Frame Rate: 120.000 fps
#------------------------------------------------------
:FULLY-SPECIFIED
:DEGREES
2450
root 0.289811 32.782458 -1.679719 407.220494 2.565579 -363.004019
RightUpLeg -44.108626 -0.452687 2.999144
RightLeg 9.077936 -0.000000 -0.000000
RightFoot -15.665425 7.281464 51.567257
RightToeBase 127.243123 -0.000000 -0.000000
LeftUpLeg -48.195391 10.455531 2.498600
LeftLeg 8.018956 -0.000000 -0.000000
LeftFoot -8.228376 -2.614925 -0.807161
LeftToeBase -0.227840 -0.000000 0.000000
Spine -35.065944 3.014643 5.486300
RightShoulder -170.065980 -9.728809 139.099127
RightArm 171.909321 9.767146 127.172042
RightForeArm 8.946920 -0.000000 10.681146
RightHand 16.373516 -0.000000 -20.230488
RightHandThumb1 -24.326973 -0.000000 -32.862282
LeftShoulder -11.069665 9.615437 35.326070
LeftArm 24.989170 -8.627185 -40.382197
LeftForeArm 24.166955 -0.000000 15.032809
LeftHand -29.248105 -0.000000 19.927025
LeftHandThumb1 -26.253704 0.000000 33.147579
Head 33.381291 1.615537 7.173708
2451
root 0.286585 32.778123 -1.717863 407.100746 2.588754 -362.877272
RightUpLeg -44.023964 -0.543998 3.076247
RightLeg 9.713591 -0.000000 -0.000000
RightFoot -16.045301 6.696959 50.187896
RightToeBase 126.270445 -0.000000 -0.000000
LeftUpLeg -48.146148 10.355362 2.407107
LeftLeg 7.995718 -0.000000 -0.000000
LeftFoot -8.102199 -2.583607 -0.693295
LeftToeBase -0.365336 -0.000000 0.000000
Spine -35.107087 2.845619 5.477026
RightShoulder -170.190020 -9.833122 138.947441
RightArm 171.930730 9.679312 127.309026
RightForeArm 8.834467 -0.000000 10.295417
RightHand 16.460273 0.000000 -20.164101
RightHandThumb1 -24.326973 -0.000000 -32.862282
LeftShoulder -11.168367 9.604780 35.273458
LeftArm 24.973607 -8.706427 -40.338752
LeftForeArm 24.245944 -0.000000 14.904073
LeftHand -29.201049 -0.000000 19.917397
LeftHandThumb1 -26.253704 0.000000 33.147579
Head 32.476916 1.717491 6.962293
2452
root 0.277378 32.771765 -1.754187 406.964867 2.734701 -362.723400
RightUpLeg -43.880869 -0.806918 3.269894
RightLeg 10.212391 -0.000000 -0.000000
RightFoot -16.553323 6.331457 49.749129
RightToeBase 125.860701 -0.000000 -0.000000
LeftUpLeg -48.086378 10.137296 2.419457
LeftLeg 7.962543 -0.000000 -0.000000
LeftFoot -7.983560 -2.514856 -0.612958
LeftToeBase -0.387774 -0.000000 0.000000
Spine -35.141375 2.596321 5.530073
RightShoulder -170.251352 -9.904678 138.803494
RightArm 172.014460 9.936050 127.447748
RightForeArm 9.032754 -0.000000 9.919114
RightHand 16.460464 -0.000000 -20.021633
RightHandThumb1 -24.326973 -0.000000 -32.862282
LeftShoulder -11.275532 9.540415 35.238394
LeftArm 24.968861 -8.827479 -40.355067
LeftForeArm 24.269060 -0.000000 14.766240
LeftHand -29.243355 -0.000000 19.909669
LeftHandThumb1 -26.253704 0.000000 33.147579
Head 31.515074 1.803328 6.755979
2453
root 0.261050 32.763247 -1.784621 406.818590 2.967160 -362.559881
RightUpLeg -43.602061 -1.257012 3.595553
RightLeg 10.340748 -0.000000 -0.000000
RightFoot -16.781651 6.239291 50.358112
RightToeBase 125.914793 -0.000000 -0.000000
LeftUpLeg -48.011292 9.874858 2.490262
LeftLeg 7.908695 -0.000000 -0.000000
LeftFoot -7.863198 -2.532214 -0.554038
LeftToeBase -0.110071 -0.000000 0.000000
Spine -35.192267 2.317798 5.617989
RightShoulder -170.267109 -10.081778 138.595220
RightArm 172.001872 9.979692 127.550150
RightForeArm 8.750931 0.000000 9.502448
RightHand 16.576464 -0.000000 -19.513220
RightHandThumb1 -24.326973 -0.000000 -32.862282
LeftShoulder -11.348434 9.478290 35.179876
LeftArm 24.972735 -8.960451 -40.350673
LeftForeArm 24.370896 -0.000000 14.635872
LeftHand -29.195015 -0.000000 19.842701
LeftHandThumb1 -26.253704 0.000000 33.147579
Head 30.529317 1.850506 6.536822
2454
root 0.242506 32.752965 -1.810910 406.645730 3.296340 -362.393931
RightUpLeg -43.213008 -1.986072 4.158824
RightLeg 10.093797 -0.000000 -0.000000
RightFoot -16.841129 6.123433 50.405269
RightToeBase 127.043153 -0.000000 -0.000000
LeftUpLeg -47.931079 9.551676 2.631922
LeftLeg 7.892270 -0.000000 -0.000000
LeftFoot -7.762345 -2.508619 -0.519841
LeftToeBase -0.121766 -0.000000 0.000000
Spine -35.232214 1.966385 5.772903
RightShoulder -170.289690 -10.244854 138.418302
RightArm 172.034059 10.272133 127.660033
RightForeArm 8.785196 -0.000000 8.965645
RightHand 16.780766 0.000000 -19.206902
RightHandThumb1 -24.326973 -0.000000 -32.862282
LeftShoulder -11.442502 9.484983 35.147238
LeftArm 25.041550 -9.189890 -40.445301
LeftForeArm 24.421857 -0.000000 14.519672
LeftHand -29.186379 0.000000 19.833724
LeftHandThumb1 -26.253704 0.000000 33.147579
Head 29.523324 1.814139 6.377649
2455
root 0.221271 32.740512 -1.831653 406.454839 3.698012 -362.185769
RightUpLeg -42.730969 -2.923325 4.810492
RightLeg 9.517328 -0.000000 -0.000000
RightFoot -16.581035 6.268264 50.265304
RightToeBase 126.734684 -0.000000 -0.000000
LeftUpLeg -47.854378 9.207554 2.746709
LeftLeg 7.899985 -0.000000 -0.000000
LeftFoot -7.642884 -2.576887 -0.449733
LeftToeBase -0.242306 -0.000000 0.000000
Spine -35.284091 1.593455 5.919896
RightShoulder -170.230868 -10.386674 138.231063
RightArm 172.065745 10.610060 127.800675
RightForeArm 8.702054 -0.000000 8.490848
RightHand 16.778013 0.000000 -18.788332
RightHandThumb1 -24.326973 -0.000000 -32.862282
LeftShoulder -11.481885 9.386380 35.131590
LeftArm 25.083804 -9.357074 -40.560117
LeftForeArm 24.619455 0.000000 14.401892
LeftHand -29.122184 -0.000000 19.953595
LeftHandThumb1 -26.253704 0.000000 33.147579
Head 28.541980 1.801026 6.184266
